<svg width="872" height="250" viewBox="0 0 872 250" fill="none" xmlns="http://www.w3.org/2000/svg">
<path d="M278.717 152L295.565 110.528H279.869V119.672H270.725V101.744H306.293V111.104L290.093 152H278.717ZM340.417 152L329.041 101.744H339.841L344.593 125.864L347.257 139.832H347.473L350.641 125.864L356.185 101.744H368.137L373.753 125.864L376.849 139.832H377.065L379.729 125.864L384.553 101.744H394.921L383.257 152H370.801L364.465 124.784L362.017 113.768H361.801L359.281 124.784L352.945 152H340.417ZM415.892 152.864C413.012 152.864 410.444 152.408 408.188 151.496C405.932 150.536 404.012 149.216 402.428 147.536C400.892 145.808 399.716 143.72 398.9 141.272C398.132 138.824 397.748 136.088 397.748 133.064C397.748 130.088 398.132 127.4 398.9 125C399.668 122.552 400.796 120.464 402.284 118.736C403.82 117.008 405.692 115.688 407.9 114.776C410.108 113.816 412.628 113.336 415.46 113.336C418.58 113.336 421.244 113.864 423.452 114.92C425.708 115.976 427.532 117.392 428.924 119.168C430.364 120.944 431.396 123.008 432.02 125.36C432.692 127.664 433.028 130.088 433.028 132.632V135.8H408.764V136.376C408.764 138.872 409.436 140.864 410.78 142.352C412.124 143.792 414.236 144.512 417.116 144.512C419.324 144.512 421.124 144.08 422.516 143.216C423.908 142.304 425.204 141.224 426.404 139.976L431.732 146.6C430.052 148.568 427.844 150.104 425.108 151.208C422.42 152.312 419.348 152.864 415.892 152.864ZM415.676 121.184C413.516 121.184 411.812 121.904 410.564 123.344C409.364 124.736 408.764 126.608 408.764 128.96V129.536H422.012V128.888C422.012 126.584 421.484 124.736 420.428 123.344C419.42 121.904 417.836 121.184 415.676 121.184ZM456.321 152.864C453.441 152.864 450.873 152.408 448.617 151.496C446.361 150.536 444.441 149.216 442.857 147.536C441.321 145.808 440.145 143.72 439.329 141.272C438.561 138.824 438.177 136.088 438.177 133.064C438.177 130.088 438.561 127.4 439.329 125C440.097 122.552 441.225 120.464 442.713 118.736C444.249 117.008 446.121 115.688 448.329 114.776C450.537 113.816 453.057 113.336 455.889 113.336C459.009 113.336 461.673 113.864 463.881 114.92C466.137 115.976 467.961 117.392 469.353 119.168C470.793 120.944 471.825 123.008 472.449 125.36C473.121 127.664 473.457 130.088 473.457 132.632V135.8H449.193V136.376C449.193 138.872 449.865 140.864 451.209 142.352C452.553 143.792 454.665 144.512 457.545 144.512C459.753 144.512 461.553 144.08 462.945 143.216C464.337 142.304 465.633 141.224 466.833 139.976L472.161 146.6C470.481 148.568 468.273 150.104 465.537 151.208C462.849 152.312 459.777 152.864 456.321 152.864ZM456.105 121.184C453.945 121.184 452.241 121.904 450.993 123.344C449.793 124.736 449.193 126.608 449.193 128.96V129.536H462.441V128.888C462.441 126.584 461.913 124.736 460.857 123.344C459.849 121.904 458.265 121.184 456.105 121.184ZM480.983 98.72H491.639V130.184H492.071L496.751 123.2L504.311 114.2H516.119L503.519 128.672L517.559 152H504.887L496.391 136.016L491.639 141.344V152H480.983V98.72ZM560.433 152.864C557.025 152.864 553.953 152.336 551.217 151.28C548.481 150.176 546.153 148.568 544.233 146.456C542.313 144.296 540.825 141.632 539.769 138.464C538.713 135.248 538.185 131.504 538.185 127.232C538.185 123.008 538.713 119.264 539.769 116C540.825 112.688 542.313 109.928 544.233 107.72C546.153 105.464 548.481 103.76 551.217 102.608C553.953 101.456 557.025 100.88 560.433 100.88C565.089 100.88 568.929 101.84 571.953 103.76C574.977 105.632 577.401 108.608 579.225 112.688L569.793 117.584C569.121 115.472 568.065 113.792 566.625 112.544C565.233 111.248 563.169 110.6 560.433 110.6C557.217 110.6 554.625 111.656 552.657 113.768C550.737 115.832 549.777 118.856 549.777 122.84V130.904C549.777 134.888 550.737 137.936 552.657 140.048C554.625 142.112 557.217 143.144 560.433 143.144C563.121 143.144 565.257 142.424 566.841 140.984C568.473 139.496 569.673 137.72 570.441 135.656L579.369 140.84C577.497 144.68 575.025 147.656 571.953 149.768C568.929 151.832 565.089 152.864 560.433 152.864ZM586.452 98.72H597.108V120.608H597.54C598.212 118.64 599.388 116.936 601.068 115.496C602.748 114.056 605.076 113.336 608.052 113.336C611.94 113.336 614.868 114.632 616.836 117.224C618.852 119.816 619.86 123.512 619.86 128.312V152H609.204V129.176C609.204 126.728 608.82 124.928 608.052 123.776C607.284 122.576 605.916 121.976 603.948 121.976C603.084 121.976 602.244 122.096 601.428 122.336C600.612 122.528 599.868 122.864 599.196 123.344C598.572 123.824 598.068 124.424 597.684 125.144C597.3 125.816 597.108 126.608 597.108 127.52V152H586.452V98.72ZM657.279 152C655.359 152 653.751 151.4 652.455 150.2C651.207 149 650.415 147.392 650.079 145.376H649.647C649.071 147.824 647.799 149.696 645.831 150.992C643.863 152.24 641.439 152.864 638.559 152.864C634.767 152.864 631.863 151.856 629.847 149.84C627.831 147.824 626.823 145.16 626.823 141.848C626.823 137.864 628.263 134.912 631.143 132.992C634.071 131.024 638.031 130.04 643.023 130.04H648.999V127.664C648.999 125.84 648.519 124.4 647.559 123.344C646.599 122.24 644.991 121.688 642.735 121.688C640.623 121.688 638.943 122.144 637.695 123.056C636.447 123.968 635.415 125 634.599 126.152L628.263 120.536C629.799 118.28 631.719 116.528 634.023 115.28C636.375 113.984 639.543 113.336 643.527 113.336C648.903 113.336 652.935 114.512 655.623 116.864C658.311 119.216 659.655 122.648 659.655 127.16V143.72H663.183V152H657.279ZM642.519 145.448C644.295 145.448 645.807 145.064 647.055 144.296C648.351 143.528 648.999 142.28 648.999 140.552V136.088H643.815C639.639 136.088 637.551 137.504 637.551 140.336V141.416C637.551 142.808 637.983 143.84 638.847 144.512C639.711 145.136 640.935 145.448 642.519 145.448ZM680.919 152C677.271 152 674.583 151.112 672.855 149.336C671.175 147.56 670.335 144.992 670.335 141.632V98.72H680.991V143.72H685.743V152H680.919ZM702.153 152C698.505 152 695.817 151.112 694.089 149.336C692.409 147.56 691.569 144.992 691.569 141.632V98.72H702.225V143.72H706.977V152H702.153ZM729.134 152.864C726.254 152.864 723.686 152.408 721.43 151.496C719.174 150.536 717.254 149.216 715.67 147.536C714.134 145.808 712.958 143.72 712.142 141.272C711.374 138.824 710.99 136.088 710.99 133.064C710.99 130.088 711.374 127.4 712.142 125C712.91 122.552 714.038 120.464 715.526 118.736C717.062 117.008 718.934 115.688 721.142 114.776C723.35 113.816 725.87 113.336 728.702 113.336C731.822 113.336 734.486 113.864 736.694 114.92C738.95 115.976 740.774 117.392 742.166 119.168C743.606 120.944 744.638 123.008 745.262 125.36C745.934 127.664 746.27 130.088 746.27 132.632V135.8H722.006V136.376C722.006 138.872 722.678 140.864 724.022 142.352C725.366 143.792 727.478 144.512 730.358 144.512C732.566 144.512 734.366 144.08 735.758 143.216C737.15 142.304 738.446 141.224 739.646 139.976L744.974 146.6C743.294 148.568 741.086 150.104 738.35 151.208C735.662 152.312 732.59 152.864 729.134 152.864ZM728.918 121.184C726.758 121.184 725.054 121.904 723.806 123.344C722.606 124.736 722.006 126.608 722.006 128.96V129.536H735.254V128.888C735.254 126.584 734.726 124.736 733.67 123.344C732.662 121.904 731.078 121.184 728.918 121.184ZM753.796 152V114.2H764.452V120.608H764.884C765.556 118.64 766.732 116.936 768.412 115.496C770.092 114.056 772.42 113.336 775.396 113.336C779.284 113.336 782.212 114.632 784.18 117.224C786.196 119.816 787.204 123.512 787.204 128.312V152H776.548V129.176C776.548 126.728 776.164 124.928 775.396 123.776C774.628 122.576 773.26 121.976 771.292 121.976C770.428 121.976 769.588 122.096 768.772 122.336C767.956 122.528 767.212 122.864 766.54 123.344C765.916 123.824 765.412 124.424 765.028 125.144C764.644 125.816 764.452 126.608 764.452 127.52V152H753.796ZM831.678 154.736C831.678 156.752 831.318 158.528 830.598 160.064C829.926 161.6 828.798 162.896 827.214 163.952C825.63 165.056 823.518 165.872 820.878 166.4C818.286 166.976 815.07 167.264 811.23 167.264C807.966 167.264 805.182 167.048 802.878 166.616C800.622 166.232 798.774 165.656 797.334 164.888C795.942 164.168 794.91 163.256 794.238 162.152C793.614 161.096 793.302 159.872 793.302 158.48C793.302 156.368 793.926 154.712 795.174 153.512C796.422 152.312 798.15 151.568 800.358 151.28V150.488C798.534 150.152 797.166 149.384 796.254 148.184C795.342 146.936 794.886 145.496 794.886 143.864C794.886 142.856 795.078 141.992 795.462 141.272C795.894 140.504 796.422 139.856 797.046 139.328C797.718 138.752 798.486 138.296 799.35 137.96C800.214 137.624 801.078 137.36 801.942 137.168V136.88C799.638 135.824 797.934 134.384 796.83 132.56C795.726 130.688 795.174 128.528 795.174 126.08C795.174 122.24 796.494 119.168 799.134 116.864C801.822 114.512 805.902 113.336 811.374 113.336C813.87 113.336 816.006 113.576 817.782 114.056V112.616C817.782 110.6 818.262 109.16 819.222 108.296C820.23 107.384 821.646 106.928 823.47 106.928H829.446V114.848H821.094V115.28C823.302 116.336 824.934 117.8 825.99 119.672C827.046 121.496 827.574 123.632 827.574 126.08C827.574 129.872 826.23 132.92 823.542 135.224C820.902 137.48 816.846 138.608 811.374 138.608C808.926 138.608 806.694 138.344 804.678 137.816C803.574 138.536 803.022 139.544 803.022 140.84C803.022 141.752 803.358 142.472 804.03 143C804.75 143.48 805.926 143.72 807.558 143.72H818.502C823.11 143.72 826.446 144.68 828.51 146.6C830.622 148.52 831.678 151.232 831.678 154.736ZM821.67 156.176C821.67 155.072 821.238 154.232 820.374 153.656C819.51 153.08 817.998 152.792 815.838 152.792H802.878C802.398 153.272 802.038 153.8 801.798 154.376C801.606 155 801.51 155.6 801.51 156.176C801.51 157.568 802.11 158.576 803.31 159.2C804.51 159.872 806.55 160.208 809.43 160.208H813.75C816.63 160.208 818.67 159.872 819.87 159.2C821.07 158.576 821.67 157.568 821.67 156.176ZM811.374 131.624C813.486 131.624 815.046 131.192 816.054 130.328C817.11 129.416 817.638 128.12 817.638 126.44V125.576C817.638 123.896 817.11 122.624 816.054 121.76C815.046 120.848 813.486 120.392 811.374 120.392C809.262 120.392 807.678 120.848 806.622 121.76C805.614 122.624 805.11 123.896 805.11 125.576V126.44C805.11 128.12 805.614 129.416 806.622 130.328C807.678 131.192 809.262 131.624 811.374 131.624ZM851.759 152.864C848.879 152.864 846.311 152.408 844.055 151.496C841.799 150.536 839.879 149.216 838.295 147.536C836.759 145.808 835.583 143.72 834.767 141.272C833.999 138.824 833.615 136.088 833.615 133.064C833.615 130.088 833.999 127.4 834.767 125C835.535 122.552 836.663 120.464 838.151 118.736C839.687 117.008 841.559 115.688 843.767 114.776C845.975 113.816 848.495 113.336 851.327 113.336C854.447 113.336 857.111 113.864 859.319 114.92C861.575 115.976 863.399 117.392 864.791 119.168C866.231 120.944 867.263 123.008 867.887 125.36C868.559 127.664 868.895 130.088 868.895 132.632V135.8H844.631V136.376C844.631 138.872 845.303 140.864 846.647 142.352C847.991 143.792 850.103 144.512 852.983 144.512C855.191 144.512 856.991 144.08 858.383 143.216C859.775 142.304 861.071 141.224 862.271 139.976L867.599 146.6C865.919 148.568 863.711 150.104 860.975 151.208C858.287 152.312 855.215 152.864 851.759 152.864ZM851.543 121.184C849.383 121.184 847.679 121.904 846.431 123.344C845.231 124.736 844.631 126.608 844.631 128.96V129.536H857.879V128.888C857.879 126.584 857.351 124.736 856.295 123.344C855.287 121.904 853.703 121.184 851.543 121.184Z" fill="#083762"/>
<g clip-path="url(#clip0)">
<path d="M216.505 62.5L108.255 125L72.1667 104.167L144.339 62.5L72.1667 20.8333L108.255 0L216.505 62.5Z" fill="#FFC1C9"/>
<path d="M72.1667 20.8333V62.5L108.255 83.3333L144.339 62.5L72.1667 20.8333Z" fill="#F3746D"/>
<path d="M108.255 125V250L216.505 187.5V145.833L144.339 187.5V145.833L216.505 104.167V62.5L108.255 125Z" fill="#82E3E1"/>
<path d="M216.505 145.833L180.422 125L144.339 145.833V187.5L216.505 145.833Z" fill="#2A87A9"/>
<path d="M0 62.5L36.0833 83.3334L72.1667 62.5L36.0833 41.6667L0 62.5Z" fill="#288797"/>
<path d="M0 62.5V187.5L36.0833 208.333L54.125 197.917L72.1667 229.167L108.255 250V125L72.1667 104.167V187.5L54.125 156.25L36.0833 166.667V83.3333L0 62.5Z" fill="#5BBEAA"/>
<path d="M36.0833 83.3333L72.1667 62.5V145.833L36.0833 166.667V83.3333Z" fill="#286871"/>
<path d="M54.125 156.25L72.1667 145.833V187.5L54.125 156.25Z" fill="#284F67"/>
</g>
<defs>
<clipPath id="clip0">
<rect width="216.505" height="250" fill="white"/>
</clipPath>
</defs>
</svg>
