<svg id="Letter" xmlns="http://www.w3.org/2000/svg" viewBox="0 0 415.69 480"><defs><style>.cls-1{fill:#ffc1c9;}.cls-2{fill:#f3746d;}.cls-3{fill:#82e3e1;}.cls-4{fill:#2a87a9;}.cls-5{fill:#288797;}.cls-6{fill:#5bbeaa;}.cls-7{fill:#286871;}.cls-8{fill:#284f67;}</style></defs><g id="_7" data-name="7"><polygon class="cls-1" points="415.69 120 207.85 240 138.56 200 277.13 120 138.56 40 207.85 0 415.69 120"/><polygon class="cls-2" points="138.56 40 138.56 120 207.85 160 277.13 120 138.56 40"/></g><g id="C"><polygon class="cls-3" points="207.85 240 207.85 480 415.69 360 415.69 280 277.13 360 277.13 280 415.69 200 415.69 120 207.85 240"/><polygon class="cls-4" points="415.69 280 346.41 240 277.13 280 277.13 360 415.69 280"/></g><g id="W"><polygon class="cls-5" points="0 120 69.28 160 138.56 120 69.28 80 0 120"/><polygon class="cls-6" points="0 120 0 360 69.28 400 103.92 380 138.56 440 207.85 480 207.85 240 138.56 200 138.56 360 103.92 300 69.28 320 69.28 160 0 120"/><polygon class="cls-7" points="69.28 160 138.56 120 138.56 280 69.28 320 69.28 160"/><polygon class="cls-8" points="103.92 300 138.56 280 138.56 360 103.92 300"/></g></svg>