<svg xmlns="http://www.w3.org/2000/svg" xmlns:xlink="http://www.w3.org/1999/xlink" width="640" height="640" preserveAspectRatio="xMidYMid meet" version="1.1" viewBox="0 0 640 640"><defs><path id="fmwjZ9bVf" d="M214 525.6L89.04 525.6L89.04 104.88L214 104.88L214 525.6"/><path id="cbGZ3mz6O" d="M89.04 104.88L89.04 104.88L89.04 525.6L214 525.6L214 386.24L89.04 104.88"/><linearGradient id="gradientbNBWDiab" x1="151.48" x2="151.48" y1="104.86" y2="525.6" gradientUnits="userSpaceOnUse"><stop offset="0%" stop-color="#35b3d1" stop-opacity="1"/><stop offset="100%" stop-color="#013d74" stop-opacity="1"/></linearGradient><path id="aGqiizRXU" d="M389.52 464.24L264.56 464.24L89.04 104.88L214 104.88L389.52 464.24"/><path id="aj7pvtgAo" d="M440.08 525.6L565.04 525.6L565.04 104.88L440.08 104.88L440.08 525.6"/><path id="elRvlw2xR" d="M565.04 104.88L565.04 104.88L440.08 386.24L440.08 360.72L565.04 104.88L440.08 360.72L440.08 525.6L565.04 525.6L565.04 104.88"/><linearGradient id="gradientb1pCx3EPS" x1="502.59" x2="502.59" y1="104.86" y2="525.6" gradientUnits="userSpaceOnUse"><stop offset="0%" stop-color="#54daea" stop-opacity="1"/><stop offset="100%" stop-color="#0389b5" stop-opacity="1"/></linearGradient><path id="b31ksB060" d="M214 104.88L89.04 104.88L214 360.72L264.56 464.24L389.52 464.24L264.56 464.24L327.04 336.4L327.04 336.4L264.56 464.24L323.84 329.92L325.68 333.52L214 104.88"/><linearGradient id="gradientb2SDhPrCxn" x1="167.76" x2="310.73" y1="408.35" y2="160.73" gradientUnits="userSpaceOnUse"><stop offset="0%" stop-color="#48c6e8" stop-opacity="1"/><stop offset="100%" stop-color="#025dae" stop-opacity="1"/></linearGradient><path id="aGwN2NuGs" d="M264.56 464.24L389.52 464.24L565.04 104.88L440.08 104.88L264.56 464.24"/><path id="b37BiWkOuY" d="M89.04 104.88L214 386.24L214 360.72L89.04 104.88"/><linearGradient id="gradientasczbG3j1" x1="151.48" x2="151.48" y1="104.86" y2="525.6" gradientUnits="userSpaceOnUse"><stop offset="0%" stop-color="#24788c" stop-opacity="1"/><stop offset="100%" stop-color="#01294e" stop-opacity="1"/></linearGradient><path id="c1EwDfIuLy" d="M89.04 104.88L89.04 104.88L214 360.72L214 360.72L89.04 104.88"/><path id="bJGfyom5u" d="M89.04 104.88L89.04 104.88L214 360.72L214 360.72L89.04 104.88"/><linearGradient id="gradientdvSbvNyfk" x1="79.53" x2="222.5" y1="357.41" y2="109.79" gradientUnits="userSpaceOnUse"><stop offset="0%" stop-color="#30859c" stop-opacity="1"/><stop offset="100%" stop-color="#013e75" stop-opacity="1"/></linearGradient><path id="a5fCitiDx" d="M565.04 104.88L565.04 104.88L440.08 360.72L440.08 386.24L565.04 104.88"/><linearGradient id="gradientcuxeOkPyT" x1="502.59" x2="502.59" y1="104.86" y2="525.6" gradientUnits="userSpaceOnUse"><stop offset="0%" stop-color="#38929d" stop-opacity="1"/><stop offset="100%" stop-color="#025c79" stop-opacity="1"/></linearGradient><path id="arEY03oqR" d="M325.68 333.52L327.04 336.4L327.04 336.4L325.68 333.52"/><path id="dSjL9joR6" d="M323.84 329.92L264.56 464.24L327.04 336.4L325.68 333.52L323.84 329.92"/><linearGradient id="gradienta1Mww5B2aN" x1="257.74" x2="400.71" y1="460.27" y2="212.64" gradientUnits="userSpaceOnUse"><stop offset="0%" stop-color="#30859c" stop-opacity="1"/><stop offset="100%" stop-color="#013e75" stop-opacity="1"/></linearGradient><path id="c3IXxfRvsR" d="M565.04 104.88L440.08 104.88L327.04 336.4L264.56 464.24L389.52 464.24L565.04 104.88"/><linearGradient id="gradientd3Oh51PIE" x1="299.46" x2="530.19" y1="484.36" y2="84.72" gradientUnits="userSpaceOnUse"><stop offset="0%" stop-color="#48c6e8" stop-opacity="1"/><stop offset="100%" stop-color="#025dae" stop-opacity="1"/></linearGradient></defs><g><g><use fill="#107dac" fill-opacity="1" opacity="1" xlink:href="#fmwjZ9bVf"/><g><use fill-opacity="0" stroke="#000" stroke-opacity="0" stroke-width="1" opacity="1" xlink:href="#fmwjZ9bVf"/></g></g><g><use fill="url(#gradientbNBWDiab)" opacity="1" xlink:href="#cbGZ3mz6O"/><g><use fill-opacity="0" stroke="#000" stroke-opacity="0" stroke-width="1" opacity="1" xlink:href="#cbGZ3mz6O"/></g></g><g><use fill="#189ad3" fill-opacity="1" opacity="1" xlink:href="#aGqiizRXU"/><g><use fill-opacity="0" stroke="#000" stroke-opacity="0" stroke-width="1" opacity="1" xlink:href="#aGqiizRXU"/></g></g><g><use fill="#1ebbd7" fill-opacity="1" opacity="1" xlink:href="#aj7pvtgAo"/><g><use fill-opacity="0" stroke="#000" stroke-opacity="0" stroke-width="1" opacity="1" xlink:href="#aj7pvtgAo"/></g></g><g><use fill="url(#gradientb1pCx3EPS)" opacity="1" xlink:href="#elRvlw2xR"/><g><use fill-opacity="0" stroke="#000" stroke-opacity="0" stroke-width="1" opacity="1" xlink:href="#elRvlw2xR"/></g></g><g><use fill="url(#gradientb2SDhPrCxn)" opacity="1" xlink:href="#b31ksB060"/><g><use fill-opacity="0" stroke="#000" stroke-opacity="0" stroke-width="1" opacity="1" xlink:href="#b31ksB060"/></g></g><g><use fill="#189ad3" fill-opacity="1" opacity="1" xlink:href="#aGwN2NuGs"/><g><use fill-opacity="0" stroke="#000" stroke-opacity="0" stroke-width="1" opacity="1" xlink:href="#aGwN2NuGs"/></g></g><g><use fill="url(#gradientasczbG3j1)" opacity="1" xlink:href="#b37BiWkOuY"/><g><use fill-opacity="0" stroke="#000" stroke-opacity="0" stroke-width="1" opacity="1" xlink:href="#b37BiWkOuY"/></g></g><g><use fill="#10678d" fill-opacity="1" opacity="1" xlink:href="#c1EwDfIuLy"/><g><use fill-opacity="0" stroke="#000" stroke-opacity="0" stroke-width="1" opacity="1" xlink:href="#c1EwDfIuLy"/></g></g><g><use fill="url(#gradientdvSbvNyfk)" opacity="1" xlink:href="#bJGfyom5u"/><g><use fill-opacity="0" stroke="#000" stroke-opacity="0" stroke-width="1" opacity="1" xlink:href="#bJGfyom5u"/></g></g><g><use fill="url(#gradientcuxeOkPyT)" opacity="1" xlink:href="#a5fCitiDx"/><g><use fill-opacity="0" stroke="#000" stroke-opacity="0" stroke-width="1" opacity="1" xlink:href="#a5fCitiDx"/></g></g><g><use fill="#ababab" fill-opacity="1" opacity="1" xlink:href="#arEY03oqR"/><g><use fill-opacity="0" stroke="#000" stroke-opacity="0" stroke-width="1" opacity="1" xlink:href="#arEY03oqR"/></g></g><g><use fill="url(#gradienta1Mww5B2aN)" opacity="1" xlink:href="#dSjL9joR6"/><g><use fill-opacity="0" stroke="#000" stroke-opacity="0" stroke-width="1" opacity="1" xlink:href="#dSjL9joR6"/></g></g><g><use fill="url(#gradientd3Oh51PIE)" opacity="1" xlink:href="#c3IXxfRvsR"/><g><use fill-opacity="0" stroke="#000" stroke-opacity="0" stroke-width="1" opacity="1" xlink:href="#c3IXxfRvsR"/></g></g></g></svg>