<svg enable-background="new 0 0 2304 2304" viewBox="0 0 2304 2304" xmlns="http://www.w3.org/2000/svg"><path d="m152 1152v1152h390l-.1-943.5-.1-943.5 298.1 298.1 298.1 298.1-112 112-112 112h470.5l-6.1-6.4c-26.4-27.1-158-161.7-199.9-204.3l-12.8-13.1 473.9-473.7 473.7-473.7v2218.7h38.7v-2284.8l-14 .4-14.1.4-486 486-485.9 486-486-486-486-486-14-.4-14-.4zm350.8 162.8c0 515.1 0 939.7-.1 943.5v7.1h-312v-2199.4l156.1 156.1 156.1 156.1zm719.1-188.3 69.1 69.1-140.8.3c-77.5.1-140.8-.1-140.8-.5 0-.7 18.5-18.9 46-45.3 14.4-13.7 65.9-63.5 80.7-77.7 8.4-8.1 15.6-14.9 16-14.9s31.6 30.9 69.8 69z" fill="#fff"/></svg>